<?xml version="1.0" standalone="no"?>
<!DOCTYPE svg PUBLIC "-//W3C//DTD SVG 20010904//EN"
 "http://www.w3.org/TR/2001/REC-SVG-20010904/DTD/svg10.dtd">
<svg version="1.0" xmlns="http://www.w3.org/2000/svg"
 width="92.000000pt" height="92.000000pt" viewBox="0 0 92.000000 92.000000"
 preserveAspectRatio="xMidYMid meet">

<g transform="translate(0.000000,92.000000) scale(0.100000,-0.100000)"
fill="#000000" stroke="none">
<path d="M360 906 c-149 -32 -274 -143 -329 -289 -11 -32 -21 -68 -20 -80 0
-12 7 2 15 32 60 223 285 372 502 332 214 -39 357 -197 375 -411 6 -62 5 -62
-9 19 -28 160 -108 272 -242 338 -75 37 -78 38 -191 38 -110 0 -120 -2 -184
-32 -114 -54 -204 -162 -237 -282 -16 -61 -14 -173 5 -238 43 -146 169 -263
325 -300 l55 -13 -48 5 c-74 7 -174 60 -235 123 -69 73 -109 155 -127 267
l-15 90 5 -72 c13 -191 133 -347 315 -409 74 -25 206 -25 280 0 160 55 280
193 311 361 44 237 -125 480 -365 524 -73 13 -115 13 -186 -3z m92 -48 c-16
-16 -15 -28 3 -28 8 0 15 9 15 20 0 11 7 20 15 20 11 0 15 -11 15 -38 0 -28
-4 -39 -15 -39 -8 0 -15 6 -15 14 0 7 -9 13 -20 13 -15 0 -20 7 -20 25 0 17 6
25 17 25 13 0 14 -3 5 -12z m-96 -23 c4 -8 10 -12 15 -9 5 3 9 0 9 -5 0 -6 -7
-11 -15 -11 -8 0 -15 -5 -15 -11 0 -6 10 -8 23 -5 13 4 9 -1 -11 -11 -30 -16
-33 -16 -49 0 -13 12 -14 17 -4 17 10 0 11 3 2 13 -8 10 -7 17 1 25 16 16 37
15 44 -3z m250 0 c4 -8 10 -13 14 -10 4 3 10 -2 14 -10 3 -8 2 -15 -3 -15 -4
0 -13 -10 -19 -22 -8 -17 -11 -19 -11 -6 -1 9 -9 19 -20 23 -15 4 -22 34 -12
53 4 9 33 -1 37 -13z m-348 -47 c7 -59 7 -63 -13 -66 -12 -2 -31 6 -43 16 -19
17 -20 21 -7 32 8 7 21 10 29 7 10 -4 13 -1 9 9 -3 8 1 14 9 14 8 0 15 -6 16
-12z m467 -18 c16 -18 16 -20 -2 -44 l-20 -25 -27 28 c-27 28 -27 28 -6 34 16
4 20 2 16 -8 -3 -10 0 -12 11 -8 12 5 14 3 8 -8 -6 -11 -5 -12 5 -2 11 10 10
16 -5 33 -10 11 -14 20 -8 20 5 0 18 -9 28 -20z m-166 -15 c46 -16 131 -73
131 -88 0 -5 -16 5 -35 22 -20 17 -39 31 -42 31 -4 0 -3 -3 2 -8 6 -4 28 -23
49 -42 21 -19 35 -28 31 -20 -6 10 -1 8 13 -4 39 -34 65 -122 59 -201 -10
-167 -125 -282 -292 -292 -73 -5 -170 20 -170 44 0 6 -4 15 -9 20 -5 5 -6 2
-1 -6 5 -9 3 -12 -6 -9 -8 3 -13 10 -12 15 3 13 -52 66 -64 61 -4 -1 -19 20
-33 47 -21 42 -25 64 -25 135 0 71 4 93 25 135 14 28 29 48 33 47 11 -5 68 49
62 58 -7 12 19 30 72 50 58 23 155 25 212 5z m-309 -80 c-13 -14 -26 -23 -28
-20 -7 7 29 45 41 45 6 0 0 -11 -13 -25z m-70 5 c0 -5 -4 -10 -10 -10 -5 0
-10 5 -10 10 0 6 5 10 10 10 6 0 10 -4 10 -10z m590 0 c0 -5 -4 -10 -10 -10
-5 0 -10 5 -10 10 0 6 5 10 10 10 6 0 10 -4 10 -10z m-630 -55 c14 -8 20 -14
13 -15 -7 0 -10 -6 -7 -14 4 -11 0 -13 -18 -10 -20 5 -21 4 -5 -6 18 -12 15
-30 -6 -30 -7 0 -6 4 3 11 12 8 11 9 -5 5 -11 -3 -27 -1 -35 4 -12 8 -12 10 5
10 17 0 17 2 5 10 -12 8 -8 10 15 11 29 1 30 1 5 9 -21 7 -22 8 -5 9 17 1 17
3 5 11 -24 15 2 11 30 -5z m675 5 c-3 -5 2 -10 12 -11 16 0 16 -1 -2 -9 -27
-12 -57 -12 -50 0 3 5 12 7 21 3 8 -3 14 -2 13 3 -2 14 0 24 7 24 3 0 2 -4 -1
-10z m31 -67 c-6 -6 -36 9 -36 18 0 5 9 4 20 -3 10 -7 18 -14 16 -15z m-11
-12 l30 -11 -35 4 c-34 5 -25 -3 23 -18 9 -3 17 -11 16 -18 0 -10 -2 -10 -6 0
-5 14 -53 17 -53 3 0 -5 15 -12 33 -16 17 -4 26 -9 19 -12 -6 -2 -10 -8 -8
-12 3 -4 -4 -7 -14 -8 -11 -1 -23 3 -26 9 -4 6 -3 8 2 5 6 -3 16 -2 24 4 11 6
8 9 -14 9 -23 0 -27 3 -23 20 3 11 1 20 -5 20 -6 0 -8 7 -4 15 3 8 1 15 -4 15
-6 0 -10 5 -10 11 0 8 4 8 13 2 6 -6 26 -15 42 -22z m-725 -6 c25 -14 25 -14
-15 -14 -22 0 -34 3 -27 6 6 2 10 9 6 14 -8 13 7 11 36 -6z m5 -35 c7 -12 -12
-12 -40 0 -18 8 -17 9 7 9 15 1 30 -3 33 -9z m-10 -20 c11 -5 16 -9 11 -9 -5
-1 -4 -7 2 -14 15 -18 2 -34 -33 -41 -24 -5 -26 -4 -10 3 17 8 17 10 3 10 -23
1 -32 19 -19 35 6 7 8 16 4 19 -9 10 18 7 42 -3z m-9 -85 c-33 -18 -36 -18
-36 -6 0 9 21 18 50 20 8 0 2 -6 -14 -14z m769 5 c-3 -5 -21 -9 -38 -9 l-32 2
35 7 c19 4 36 8 38 9 2 0 0 -3 -3 -9z m25 -60 l-11 -25 6 25 c2 14 5 36 6 50
l2 25 4 -25 c2 -14 -1 -37 -7 -50z m-757 35 c4 -8 2 -17 -3 -20 -6 -4 -10 -1
-10 4 0 13 -37 15 -44 2 -3 -5 12 -11 33 -15 36 -6 39 -8 38 -40 -1 -19 -5
-32 -9 -30 -4 3 -8 1 -8 -4 0 -6 -8 -13 -17 -16 -15 -6 -15 -5 1 13 12 13 14
21 6 26 -8 5 -5 12 7 21 17 14 16 14 -7 12 -14 -2 -24 -9 -22 -16 1 -6 -3 -12
-8 -12 -14 0 -13 17 2 26 7 5 3 10 -12 16 -22 8 -22 9 -5 28 21 24 51 26 58 5z
m725 -20 c-3 -3 -9 2 -12 12 -6 14 -5 15 5 6 7 -7 10 -15 7 -18z m-41 -2 c-4
-3 2 -13 13 -20 23 -16 18 -33 -11 -33 -16 0 -18 -5 -14 -32 3 -18 2 -28 -2
-21 -5 6 -17 11 -27 10 -10 -1 -21 5 -23 13 -4 12 -3 12 5 1 7 -10 14 -11 28
-2 12 6 14 11 5 11 -10 0 -11 3 -2 13 8 10 7 17 -1 25 -12 12 5 42 25 42 6 0
7 -3 4 -7z m34 -116 c-64 -112 -200 -211 -306 -222 l-50 -5 55 13 c127 29 248
123 301 233 13 28 25 47 27 42 2 -4 -10 -32 -27 -61z m-692 -8 c-21 -18 -21
-20 -4 -14 15 5 17 3 8 -6 -6 -6 -16 -8 -23 -4 -8 5 -5 14 11 31 12 13 25 22
27 19 3 -2 -6 -14 -19 -26z m106 -17 c-7 -7 -45 29 -45 41 0 6 11 0 25 -13 14
-13 23 -26 20 -28z m-62 2 c-3 -8 -2 -14 3 -13 25 4 35 -2 29 -20 -3 -11 -1
-22 5 -26 6 -4 9 -2 8 3 -2 6 2 10 7 11 17 1 45 -10 45 -19 0 -4 9 -10 20 -13
11 -3 20 -11 20 -19 0 -10 -2 -10 -10 2 -5 8 -12 11 -16 7 -4 -4 -2 -13 4 -19
7 -7 12 -17 12 -22 0 -6 -7 -1 -15 11 -14 20 -37 25 -51 11 -8 -9 -34 2 -34
14 0 6 6 5 15 -2 12 -10 16 -9 21 4 3 9 10 13 15 10 5 -3 6 2 3 10 -7 17 -24
22 -24 7 0 -5 -11 -8 -25 -8 -21 0 -24 3 -19 20 5 15 3 17 -7 11 -25 -15 -36
-12 -33 10 1 11 3 22 4 24 2 2 5 11 9 28 0 3 5 3 11 -1 5 -3 7 -12 3 -21z
m553 -16 c-9 -5 -13 -15 -9 -25 6 -15 5 -16 -9 -3 -14 13 -14 16 1 27 9 7 11
13 5 13 -7 0 -14 7 -18 15 -4 13 -1 12 20 -2 21 -14 23 -18 10 -25z m-46 -29
c6 -11 9 -25 6 -32 -2 -7 -5 -3 -5 7 -1 11 -4 16 -8 13 -7 -8 -33 11 -33 24 0
17 29 9 40 -12z m-92 -50 c-2 -7 -10 -4 -18 7 -9 11 -10 15 -2 10 7 -4 12 -2
13 6 0 10 2 10 6 1 2 -7 3 -18 1 -24z m-242 -1 c4 -6 3 -8 -4 -4 -5 3 -13 0
-15 -6 -3 -8 -6 -6 -6 5 -1 19 14 23 25 5z m225 -20 c7 -13 7 -18 1 -14 -6 3
-12 1 -15 -6 -2 -7 -2 -2 0 10 2 15 0 21 -7 17 -5 -3 -10 1 -10 10 0 20 16 11
31 -17z m-32 -28 c0 -9 -4 -8 -9 5 -5 11 -9 27 -9 35 0 9 4 8 9 -5 5 -11 9
-27 9 -35z m-176 25 c-3 -9 -8 -14 -10 -11 -3 3 -2 9 2 15 9 16 15 13 8 -4z
m157 -28 c0 -5 -7 -2 -15 7 -8 8 -15 20 -15 27 0 14 29 -20 30 -34z m-80 13
c0 -5 -4 -10 -10 -10 -5 0 -10 5 -10 10 0 6 5 10 10 10 6 0 10 -4 10 -10z m3
-77 c-7 -2 -21 -2 -30 0 -10 3 -4 5 12 5 17 0 24 -2 18 -5z"/>
<path d="M325 830 c-3 -5 -1 -10 4 -10 6 0 11 5 11 10 0 6 -2 10 -4 10 -3 0
-8 -4 -11 -10z"/>
<path d="M588 803 c7 -3 16 -2 19 1 4 3 -2 6 -13 5 -11 0 -14 -3 -6 -6z"/>
<path d="M240 739 c0 -5 5 -7 10 -4 6 3 10 8 10 11 0 2 -4 4 -10 4 -5 0 -10
-5 -10 -11z"/>
<path d="M413 753 c9 -2 25 -2 35 0 9 3 1 5 -18 5 -19 0 -27 -2 -17 -5z"/>
<path d="M483 753 c9 -2 23 -2 30 0 6 3 -1 5 -18 5 -16 0 -22 -2 -12 -5z"/>
<path d="M434 656 c-3 -8 -4 -21 -1 -28 3 -7 6 -3 6 10 1 29 38 31 44 2 4 -17
4 -16 3 2 -1 27 -43 38 -52 14z"/>
<path d="M300 605 c0 -9 -9 -15 -25 -15 -14 0 -25 -4 -25 -8 0 -5 14 -7 30 -4
21 3 30 10 30 23 0 11 -2 19 -5 19 -3 0 -5 -7 -5 -15z"/>
<path d="M611 603 c-1 -18 4 -23 23 -23 13 0 27 -6 29 -12 3 -7 6 -3 6 8 1 17
-4 20 -23 17 -17 -4 -25 0 -29 14 -4 15 -5 14 -6 -4z"/>
<path d="M327 594 c-10 -10 2 -24 21 -24 15 0 15 2 2 10 -12 8 -9 10 13 10 27
0 37 -15 15 -23 -7 -2 9 -7 35 -11 64 -10 187 11 180 30 -8 21 -56 17 -77 -7
-15 -18 -26 -21 -63 -16 -28 3 -50 11 -55 21 -9 16 -58 22 -71 10z m238 -14
c-27 -12 -35 -12 -35 0 0 6 12 10 28 9 24 0 25 -1 7 -9z"/>
<path d="M438 593 c12 -2 32 -2 45 0 12 2 2 4 -23 4 -25 0 -35 -2 -22 -4z"/>
<path d="M731 575 c1 -19 18 -51 18 -35 0 8 -4 22 -9 30 -5 8 -9 11 -9 5z"/>
<path d="M263 515 c0 -22 2 -30 4 -17 2 12 2 30 0 40 -3 9 -5 -1 -4 -23z"/>
<path d="M640 420 c-7 -72 -18 -137 -24 -144 -6 -7 -44 -31 -84 -52 l-73 -39
-72 39 c-40 21 -78 46 -84 54 -12 14 -13 14 -13 1 0 -9 35 -34 85 -60 l85 -44
84 43 c69 35 86 48 90 70 10 53 29 253 24 258 -3 2 -11 -54 -18 -126z"/>
<path d="M410 515 c0 -14 4 -25 9 -25 12 0 19 21 13 38 -8 21 -22 13 -22 -13z"/>
<path d="M510 520 c0 -11 4 -20 10 -20 5 0 7 7 4 15 -4 10 0 15 15 15 41 0 14
-39 -28 -41 -21 -1 -22 -2 -6 -6 11 -3 24 -10 28 -17 6 -8 10 -8 14 2 2 6 14
12 26 13 20 1 20 2 -3 9 -14 4 -19 8 -12 9 6 1 12 10 12 21 0 16 -7 20 -30 20
-23 0 -30 -4 -30 -20z"/>
<path d="M380 510 c0 -20 -16 -28 -22 -10 -2 6 -8 6 -18 0 -13 -8 -12 -10 2
-10 12 0 17 -7 15 -22 -2 -18 4 -24 26 -26 19 -2 29 2 34 14 4 10 2 19 -5 22
-7 2 -12 15 -12 28 0 13 -4 24 -10 24 -5 0 -10 -9 -10 -20z m23 -45 c1 -5 -6
-11 -15 -13 -11 -2 -18 3 -18 13 0 17 30 18 33 0z"/>
<path d="M163 460 c0 -36 2 -50 4 -32 2 17 2 47 0 65 -2 17 -4 3 -4 -33z"/>
<path d="M753 460 c0 -36 2 -50 4 -32 2 17 2 47 0 65 -2 17 -4 3 -4 -33z"/>
<path d="M273 430 c0 -25 2 -35 4 -22 2 12 2 32 0 45 -2 12 -4 2 -4 -23z"/>
<path d="M500 458 c0 -15 8 -18 48 -16 47 1 47 1 7 5 -22 3 -43 10 -47 16 -5
8 -8 6 -8 -5z"/>
<path d="M563 422 c-66 -4 -83 -25 -83 -99 0 -29 -4 -53 -10 -53 -5 0 -10 25
-10 55 0 42 -5 60 -20 75 -15 15 -33 20 -75 20 l-55 0 0 -39 c0 -22 4 -43 10
-46 6 -3 10 -17 10 -31 0 -13 4 -24 9 -24 10 0 2 48 -10 56 -5 3 -9 21 -9 40
l0 34 48 0 c43 0 50 -3 60 -25 7 -14 12 -48 12 -75 0 -49 1 -50 30 -50 17 0
30 3 31 8 0 4 2 30 3 57 4 71 12 85 52 85 26 0 34 -4 34 -18 0 -10 -3 -22 -7
-26 -5 -4 -8 -11 -8 -14 -2 -19 -19 -58 -29 -65 -7 -6 -6 -7 3 -5 8 2 18 11
22 19 20 35 50 111 47 117 -2 4 -27 6 -55 4z"/>
<path d="M741 383 c-1 -6 -4 -20 -7 -30 -5 -17 -5 -17 6 0 6 10 9 23 6 30 -3
9 -5 9 -5 0z"/>
<path d="M283 340 c0 -25 2 -35 4 -22 2 12 2 32 0 45 -2 12 -4 2 -4 -23z"/>
<path d="M379 318 c-3 -22 -1 -34 4 -29 5 5 7 21 5 37 -3 27 -4 26 -9 -8z"/>
<path d="M696 290 c-14 -22 -44 -52 -66 -66 -44 -29 -53 -41 -17 -23 32 17 87
70 103 102 21 40 11 33 -20 -13z"/>
<path d="M350 180 c8 -5 22 -9 30 -9 10 0 8 3 -5 9 -27 12 -43 12 -25 0z"/>
<path d="M545 180 c-13 -6 -15 -9 -5 -9 8 0 22 4 30 9 18 12 2 12 -25 0z"/>
<path d="M428 163 c17 -2 47 -2 65 0 17 2 3 4 -33 4 -36 0 -50 -2 -32 -4z"/>
<path d="M64 458 c-5 -8 -2 -9 9 -5 10 3 17 2 17 -3 0 -6 5 -10 10 -10 6 0 10
7 10 15 0 18 -36 20 -46 3z"/>
<path d="M792 338 c3 -7 15 -14 29 -16 23 -2 23 -2 5 13 -24 18 -39 20 -34 3z"/>
<path d="M188 204 c6 -3 9 -11 5 -17 -5 -8 -2 -8 9 0 8 7 18 11 21 8 4 -3 5
-2 2 2 -3 4 -16 8 -28 9 -12 2 -16 0 -9 -2z"/>
<path d="M685 180 c3 -5 8 -10 11 -10 2 0 4 5 4 10 0 6 -5 10 -11 10 -5 0 -7
-4 -4 -10z"/>
</g>
</svg>
